<?xml version="1.0" encoding="UTF-8"?>
<!DOCTYPE svg PUBLIC "-//W3C//DTD SVG 1.1//EN" "http://www.w3.org/Graphics/SVG/1.1/DTD/svg11.dtd">
<svg xmlns="http://www.w3.org/2000/svg" version="1.1" width="500px" height="500px" style="shape-rendering:geometricPrecision; text-rendering:geometricPrecision; image-rendering:optimizeQuality; fill-rule:evenodd; clip-rule:evenodd" xmlns:xlink="http://www.w3.org/1999/xlink">
<g><path style="opacity:0.999" fill="#ffc061" d="M 298.5,59.5 C 299.906,59.0269 300.573,58.0269 300.5,56.5C 307.169,48.3363 315.169,46.8363 324.5,52C 331.196,57.5421 333.363,64.3754 331,72.5C 286.53,188.245 241.863,303.912 197,419.5C 185.038,432.007 174.371,431.007 165,416.5C 164.333,412.5 164.333,408.5 165,404.5C 209.214,289.353 253.714,174.353 298.5,59.5 Z"/></g>
<g><path style="opacity:0.318" fill="#ffe8c7" d="M 300.5,56.5 C 300.573,58.0269 299.906,59.0269 298.5,59.5C 298.427,57.9731 299.094,56.9731 300.5,56.5 Z"/></g>
<g><path style="opacity:1" fill="#ffdd59" d="M 312.5,59.5 C 319.142,59.64 321.976,62.9734 321,69.5C 276.47,184.088 232.137,298.755 188,413.5C 183.246,418.951 178.913,418.617 175,412.5C 174.516,410.087 174.85,407.754 176,405.5C 220.056,291.055 264.389,176.722 309,62.5C 310.145,61.3636 311.312,60.3636 312.5,59.5 Z"/></g>
<g><path style="opacity:0.241" fill="#ffeed5" d="M 163.5,114.5 C 159.802,114.552 156.135,114.886 152.5,115.5C 156.044,113.431 159.71,113.098 163.5,114.5 Z"/></g>
<g><path style="opacity:0.999" fill="#ffc061" d="M 163.5,114.5 C 172.292,116.87 176.959,122.704 177.5,132C 176.778,136.169 175.278,140.003 173,143.5C 132.69,174.976 92.523,206.643 52.5,238.5C 92.5758,270.287 132.742,301.954 173,333.5C 179.445,343.004 178.611,351.837 170.5,360C 162.583,364.884 154.917,364.551 147.5,359C 103.5,324.333 59.5,289.667 15.5,255C 3.5,244 3.5,233 15.5,222C 17.7343,220.25 20.0676,218.75 22.5,217.5C 24.7488,216.92 26.4154,215.587 27.5,213.5C 31.5873,209.078 36.2539,205.411 41.5,202.5C 43.7488,201.92 45.4154,200.587 46.5,198.5C 50.5873,194.078 55.2539,190.411 60.5,187.5C 62.7488,186.92 64.4154,185.587 65.5,183.5C 75.9462,174.113 86.9462,165.446 98.5,157.5C 100.749,156.92 102.415,155.587 103.5,153.5C 113.916,144.121 124.916,135.455 136.5,127.5C 138.749,126.92 140.415,125.587 141.5,123.5C 144.601,120.067 148.268,117.4 152.5,115.5C 156.135,114.886 159.802,114.552 163.5,114.5 Z"/></g>
<g><path style="opacity:0.999" fill="#ffc061" d="M 369.5,299.5 C 371.749,298.92 373.415,297.587 374.5,295.5C 383.462,287.687 392.795,280.353 402.5,273.5C 404.749,272.92 406.415,271.587 407.5,269.5C 410.208,266.791 413.208,264.458 416.5,262.5C 418.749,261.92 420.415,260.587 421.5,258.5C 428.69,251.818 436.356,245.651 444.5,240C 445.451,239.282 445.617,238.449 445,237.5C 406.98,207.636 369.146,177.636 331.5,147.5C 331.027,146.094 330.027,145.427 328.5,145.5C 321.252,139.449 319.585,132.115 323.5,123.5C 324.906,123.027 325.573,122.027 325.5,120.5C 333.888,111.763 342.888,111.263 352.5,119C 398,155.167 443.5,191.333 489,227.5C 494.426,236.925 493.26,245.425 485.5,253C 440.167,288.667 394.833,324.333 349.5,360C 338.724,365.854 329.891,363.687 323,353.5C 319.489,344.054 321.656,336.221 329.5,330C 342.713,319.573 356.047,309.406 369.5,299.5 Z"/></g>
<g><path style="opacity:0.455" fill="#ffe3ba" d="M 325.5,120.5 C 325.573,122.027 324.906,123.027 323.5,123.5C 323.427,121.973 324.094,120.973 325.5,120.5 Z"/></g>
<g><path style="opacity:1" fill="#ffdd59" d="M 156.5,124.5 C 167.699,125.978 169.365,130.811 161.5,139C 119.045,171.626 77.0445,204.792 35.5,238.5C 79.1198,272.946 122.62,307.613 166,342.5C 167.167,350 164,353.167 156.5,352C 111.787,316.285 66.787,280.952 21.5,246C 14.8333,241 14.8333,236 21.5,231C 66.9742,196.017 111.974,160.517 156.5,124.5 Z"/></g>
<g><path style="opacity:1" fill="#ffdd59" d="M 336.5,124.5 C 340.844,124.339 344.511,125.839 347.5,129C 391.5,163.667 435.5,198.333 479.5,233C 481.347,235.579 481.847,238.412 481,241.5C 435.479,278.35 389.646,314.85 343.5,351C 335.228,354.061 331.728,351.228 333,342.5C 376.307,307.704 419.807,273.037 463.5,238.5C 420.144,203.976 376.644,169.643 333,135.5C 331.518,130.774 332.685,127.107 336.5,124.5 Z"/></g>
<g><path style="opacity:0.914" fill="#ffd89f" d="M 141.5,123.5 C 140.415,125.587 138.749,126.92 136.5,127.5C 137.585,125.413 139.251,124.08 141.5,123.5 Z"/></g>
<g><path style="opacity:0.816" fill="#ffdfb0" d="M 328.5,145.5 C 330.027,145.427 331.027,146.094 331.5,147.5C 329.973,147.573 328.973,146.906 328.5,145.5 Z"/></g>
<g><path style="opacity:0.925" fill="#ffd79d" d="M 103.5,153.5 C 102.415,155.587 100.749,156.92 98.5,157.5C 99.5846,155.413 101.251,154.08 103.5,153.5 Z"/></g>
<g><path style="opacity:0.918" fill="#ffd79b" d="M 65.5,183.5 C 64.4154,185.587 62.7488,186.92 60.5,187.5C 61.5846,185.413 63.2512,184.08 65.5,183.5 Z"/></g>
<g><path style="opacity:0.925" fill="#ffd69a" d="M 46.5,198.5 C 45.4154,200.587 43.7488,201.92 41.5,202.5C 42.5846,200.413 44.2512,199.08 46.5,198.5 Z"/></g>
<g><path style="opacity:0.929" fill="#ffd699" d="M 27.5,213.5 C 26.4154,215.587 24.7488,216.92 22.5,217.5C 23.5846,215.413 25.2512,214.08 27.5,213.5 Z"/></g>
<g><path style="opacity:0.941" fill="#ffd699" d="M 421.5,258.5 C 420.415,260.587 418.749,261.92 416.5,262.5C 417.585,260.413 419.251,259.08 421.5,258.5 Z"/></g>
<g><path style="opacity:0.925" fill="#ffd69b" d="M 407.5,269.5 C 406.415,271.587 404.749,272.92 402.5,273.5C 403.585,271.413 405.251,270.08 407.5,269.5 Z"/></g>
<g><path style="opacity:0.929" fill="#ffd699" d="M 374.5,295.5 C 373.415,297.587 371.749,298.92 369.5,299.5C 370.585,297.413 372.251,296.08 374.5,295.5 Z"/></g>
</svg>
